# Blender v2.92.0 OBJ File: 'plane.blend'
# www.blender.org
mtllib plane.mtl
o Cube_Cube.001
v 0.233668 0.309868 0.002098
v 0.307838 0.849057 0.002098
v 0.233668 0.336243 -0.582984
v 0.307838 0.849057 -0.582984
v -0.059455 0.510192 -1.951677
v -0.031027 0.642505 -2.057910
v 0.059455 0.510192 -1.951677
v 0.031027 0.642505 -2.057910
v 0.307838 0.592650 -0.582984
v 0.269194 0.660867 0.150916
v -0.038642 0.558948 -2.023110
v 0.038642 0.558948 -2.023110
v 0.233668 0.309868 0.253944
v 0.244681 0.659100 0.253944
v 0.116851 0.425162 0.521053
v 0.153941 0.607051 0.521053
v 0.307838 0.720853 -0.582984
v 0.307838 0.754962 0.076507
v -0.038642 0.597063 -2.041426
v 0.038642 0.597063 -2.041426
v 2.005592 0.841525 -0.259908
v 2.005592 0.849057 -0.026113
v 2.005592 0.728385 -0.259908
v 2.005592 0.754962 0.016875
v 1.156715 0.754962 0.076507
v 1.156715 0.849057 0.002098
v 1.156715 0.724619 -0.582984
v 1.156715 0.845291 -0.582984
v 0.100116 0.462572 -1.534859
v 0.098650 0.682289 -1.534859
v 0.131894 0.572431 -1.534859
v 0.131894 0.627360 -1.534859
v 0.014221 1.061196 -2.002962
v 0.023524 1.088159 -1.725346
v 0.046649 0.885224 -1.630102
v 0.019324 0.817966 -2.079889
v 0.233668 0.336243 -0.582984
v 0.307838 0.849057 -0.582984
v 0.307838 0.592650 -0.582984
v 0.307838 0.720853 -0.582984
v 1.156715 0.724619 -0.582984
v 1.156715 0.845291 -0.582984
v 0.153941 0.607051 0.521053
v 0.116851 0.425162 0.521053
v -0.233668 0.309868 0.002098
v -0.307838 0.849057 0.002098
v -0.233668 0.336243 -0.582984
v -0.307838 0.849057 -0.582984
v 0.059455 0.510192 -1.951677
v 0.031027 0.642505 -2.057910
v -0.059455 0.510192 -1.951677
v -0.031027 0.642505 -2.057910
v -0.307838 0.592650 -0.582984
v -0.269194 0.660867 0.150916
v 0.038642 0.558948 -2.023110
v -0.038642 0.558948 -2.023110
v -0.233668 0.309868 0.253944
v -0.244681 0.659100 0.253944
v -0.116851 0.425162 0.521053
v -0.153941 0.607051 0.521053
v -0.307838 0.720853 -0.582984
v -0.307838 0.754962 0.076507
v 0.038642 0.597063 -2.041426
v -0.038642 0.597063 -2.041426
v 0.000000 0.336243 -0.582984
v 0.000000 0.849057 -0.582984
v 0.000000 0.309868 0.002098
v 0.000000 0.849057 0.002098
v 0.000000 0.510192 -1.951677
v 0.000000 0.642505 -2.057910
v 0.000000 0.558948 -2.023110
v 0.000000 0.660867 0.150916
v 0.000000 0.309868 0.253944
v 0.000000 0.659100 0.253944
v 0.000000 0.425162 0.521053
v 0.000000 0.607051 0.521053
v 0.000000 0.597063 -2.041426
v 0.000000 0.754962 0.076507
v -2.005592 0.841525 -0.259908
v -2.005592 0.849057 -0.026113
v -2.005592 0.728385 -0.259908
v -2.005592 0.754962 0.016875
v -1.156715 0.754962 0.076507
v -1.156715 0.849057 0.002098
v -1.156715 0.724619 -0.582984
v -1.156715 0.845291 -0.582984
v -0.100116 0.462572 -1.534859
v -0.098650 0.682289 -1.534859
v -0.131894 0.572431 -1.534859
v -0.131894 0.627360 -1.534859
v 0.000000 0.682289 -1.534859
v 0.000000 0.462572 -1.534859
v 0.000000 1.061196 -2.002962
v -0.014221 1.061196 -2.002962
v 0.000000 1.088159 -1.725346
v -0.023524 1.088159 -1.725346
v -0.046649 0.885224 -1.630102
v 0.000000 0.885224 -1.630102
v -0.019324 0.817966 -2.079889
v 0.000000 0.817966 -2.079889
v -0.233668 0.336243 -0.582984
v -0.307838 0.849057 -0.582984
v -0.307838 0.592650 -0.582984
v -0.307838 0.720853 -0.582984
v 0.000000 0.336243 -0.582984
v 0.000000 0.849057 -0.582984
v -1.156715 0.724619 -0.582984
v -1.156715 0.845291 -0.582984
v -0.153941 0.607051 0.521053
v -0.116851 0.425162 0.521053
v 0.000000 0.425162 0.521053
v 0.000000 0.607051 0.521053
v 0.322678 0.634300 0.521053
v 0.315055 0.406705 0.521053
v 0.000000 0.222613 0.521053
v 0.000000 0.792347 0.521053
v -0.322678 0.634300 0.521053
v -0.315055 0.406705 0.521053
v 0.322678 0.634300 0.580705
v 0.315055 0.406705 0.580705
v 0.000000 0.222613 0.580705
v 0.000000 0.792347 0.580705
v -0.322678 0.634300 0.580705
v -0.315055 0.406705 0.580705
vt 0.625000 0.750000
vt 0.562500 0.750000
vt 0.562500 0.750000
vt 0.625000 0.750000
vt 0.250000 0.500000
vt 0.375000 0.500000
vt 0.375000 0.750000
vt 0.250000 0.750000
vt 0.562500 0.375000
vt 0.625000 0.375000
vt 0.625000 0.500000
vt 0.562500 0.500000
vt 0.500000 0.500000
vt 0.375000 0.500000
vt 0.375000 0.500000
vt 0.500000 0.500000
vt 0.750000 0.500000
vt 0.625000 0.500000
vt 0.625000 0.500000
vt 0.750000 0.500000
vt 0.562500 0.500000
vt 0.375000 0.375000
vt 0.500000 0.375000
vt 0.375000 0.750000
vt 0.250000 0.750000
vt 0.500000 0.500000
vt 0.500000 0.750000
vt 0.500000 0.750000
vt 0.500000 0.750000
vt 0.375000 0.750000
vt 0.250000 0.750000
vt 0.625000 0.500000
vt 0.562500 0.500000
vt 0.562500 0.750000
vt 0.500000 0.250000
vt 0.562500 0.250000
vt 0.500000 0.875000
vt 0.500000 0.875000
vt 0.500000 0.875000
vt 0.375000 0.250000
vt 0.250000 0.500000
vt 0.250000 0.500000
vt 0.625000 0.250000
vt 0.625000 0.500000
vt 0.750000 0.500000
vt 0.750000 0.750000
vt 0.625000 0.750000
vt 0.562500 0.500000
vt 0.625000 0.500000
vt 0.562500 0.500000
vt 0.625000 0.500000
vt 0.750000 0.500000
vt 0.625000 0.500000
vt 0.750000 0.500000
vt 0.625000 0.500000
vt 0.625000 0.375000
vt 0.625000 0.375000
vt 0.562500 0.500000
vt 0.625000 0.500000
vt 0.625000 0.500000
vt 0.562500 0.500000
vt 0.375000 0.750000
vt 0.250000 0.750000
vt 0.500000 0.750000
vt 0.500000 0.875000
vt 0.625000 0.750000
vt 0.625000 0.750000
vt 0.562500 0.750000
vt 0.562500 0.750000
vt 0.375000 0.750000
vt 0.375000 0.500000
vt 0.562500 0.500000
vt 0.625000 0.500000
vt 0.500000 0.500000
vt 0.500000 0.500000
vt 0.375000 0.500000
vt 0.375000 0.500000
vt 0.625000 0.500000
vt 0.625000 0.500000
vt 0.562500 0.500000
vt 0.375000 0.750000
vt 0.500000 0.750000
vt 0.500000 0.500000
vt 0.500000 0.750000
vt 0.375000 0.750000
vt 0.500000 0.750000
vt 0.625000 0.500000
vt 0.562500 0.750000
vt 0.562500 0.500000
vt 0.500000 0.250000
vt 0.562500 0.250000
vt 0.000000 0.000000
vt 0.000000 0.000000
vt 0.000000 0.000000
vt 0.000000 0.000000
vt 0.375000 0.250000
vt 0.625000 0.250000
vt 0.625000 0.500000
vt 0.625000 0.750000
vt 0.562500 0.500000
vt 0.625000 0.500000
vt 0.562500 0.500000
vt 0.625000 0.500000
vt 0.625000 0.500000
vt 0.625000 0.500000
vt 0.562500 0.500000
vt 0.562500 0.500000
vt 0.625000 0.500000
vt 0.625000 0.500000
vt 0.375000 0.750000
vt 0.500000 0.750000
vt 0.562500 0.875000
vt 0.625000 0.875000
vt 0.250000 0.750000
vt 0.375000 0.750000
vt 0.375000 0.750000
vt 0.250000 0.750000
vt 0.375000 0.750000
vt 0.500000 0.750000
vt 0.500000 0.750000
vt 0.375000 0.750000
vt 0.500000 0.875000
vt 0.500000 0.750000
vt 0.500000 0.875000
vt 0.375000 0.875000
vt 0.500000 0.750000
vn 0.0439 0.5288 0.8476
vn 0.0000 -0.9990 -0.0450
vn 0.0000 -0.3410 -0.9401
vn 0.9794 -0.1353 -0.1500
vn 0.0000 0.4249 0.9053
vn 0.9825 -0.0359 -0.1826
vn 0.0000 -0.8259 -0.5637
vn 0.0000 -1.0000 0.0000
vn 0.9820 -0.1858 0.0347
vn 0.9944 -0.0806 0.0683
vn 0.9255 -0.0838 0.3695
vn 0.0000 -0.9181 0.3963
vn 0.9224 0.3479 -0.1678
vn 0.0000 -0.4331 -0.9013
vn 0.9866 -0.1585 0.0390
vn -0.0000 0.9815 0.1913
vn -0.0000 0.9999 0.0171
vn 0.0000 -0.9935 -0.1135
vn 0.0000 1.0000 0.0000
vn 1.0000 0.0000 0.0000
vn -0.0072 -0.9981 0.0607
vn 0.3557 0.0000 -0.9346
vn 0.0046 0.9999 -0.0138
vn 0.0022 1.0000 -0.0032
vn 0.0022 -0.9988 0.0488
vn 0.0000 0.6203 0.7844
vn 0.0000 -0.9913 -0.1316
vn 0.9602 0.1743 -0.2181
vn 0.9833 0.0000 -0.1818
vn 0.0000 0.9850 -0.1726
vn 0.9468 -0.2739 -0.1692
vn -0.0000 0.9953 -0.0967
vn 0.9965 0.0607 -0.0580
vn 0.0000 0.3016 -0.9534
vn 0.0000 -0.1243 -0.9922
vn 0.9851 0.1316 -0.1106
vn 0.0000 0.0000 -1.0000
vn 0.0000 0.0000 1.0000
vn -0.0439 0.5288 0.8476
vn -0.9794 -0.1353 -0.1500
vn -0.9825 -0.0359 -0.1826
vn -0.9820 -0.1858 0.0347
vn -0.9944 -0.0806 0.0683
vn -0.9255 -0.0838 0.3695
vn -0.9224 0.3479 -0.1678
vn -0.9866 -0.1585 0.0390
vn -1.0000 0.0000 0.0000
vn 0.0072 -0.9981 0.0607
vn -0.3557 0.0000 -0.9346
vn -0.0046 0.9999 -0.0138
vn -0.0022 1.0000 -0.0032
vn -0.0022 -0.9988 0.0488
vn -0.9602 0.1743 -0.2181
vn -0.9833 0.0000 -0.1818
vn -0.9468 -0.2739 -0.1692
vn -0.9965 0.0607 -0.0580
vn -0.9851 0.1316 -0.1106
vn -0.5045 -0.8634 0.0000
vn 0.9994 -0.0335 0.0000
vn 0.5045 -0.8634 0.0000
vn -0.4399 0.8981 0.0000
vn -0.9994 -0.0335 0.0000
vn 0.4399 0.8981 0.0000
usemtl Material
s off
f 26/1/1 25/2/1 24/3/1 22/4/1
f 65/5/2 3/6/2 1/7/2 67/8/2
f 77/9/3 70/10/3 8/11/3 20/12/3
f 31/13/4 29/14/4 7/15/4 12/16/4
f 98/17/5 35/18/5 34/19/5 95/20/5
f 32/21/6 31/13/6 12/16/6 20/12/6
f 69/22/7 71/23/7 12/16/7 7/15/7
f 67/8/8 1/7/8 13/24/8 73/25/8
f 3/6/9 9/26/9 10/27/9 1/7/9
f 1/7/10 10/27/10 14/28/10 13/24/10
f 13/24/11 14/28/11 16/29/11 15/30/11
f 73/25/12 13/24/12 15/30/12 75/31/12
f 30/32/13 32/21/13 20/12/13 8/11/13
f 71/23/14 77/9/14 20/12/14 12/16/14
f 9/26/15 17/33/15 18/34/15 10/27/15
f 11/35/14 19/36/14 77/9/14 71/23/14
f 14/28/16 74/37/16 76/38/16 16/29/16
f 10/27/17 72/39/17 74/37/17 14/28/17
f 5/40/7 11/35/7 71/23/7 69/22/7
f 29/14/18 92/41/18 69/42/18 7/15/18
f 19/36/3 6/43/3 70/10/3 77/9/3
f 4/44/19 66/45/19 68/46/19 2/47/19
f 23/48/20 21/49/20 22/4/20 24/3/20
f 25/2/21 27/50/21 23/48/21 24/3/21
f 27/50/22 28/51/22 21/49/22 23/48/22
f 28/51/23 26/1/23 22/4/23 21/49/23
f 4/44/24 2/47/24 26/1/24 28/51/24
f 18/34/25 17/33/25 27/50/25 25/2/25
f 2/47/26 18/34/26 25/2/26 26/1/26
f 3/6/27 65/5/27 92/41/27 29/14/27
f 4/44/28 17/33/28 32/21/28 30/32/28
f 17/33/29 9/26/29 31/13/29 32/21/29
f 66/45/30 4/44/30 30/32/30 91/52/30
f 9/26/31 3/6/31 29/14/31 31/13/31
f 95/20/32 34/19/32 33/53/32 93/54/32
f 35/18/33 36/55/33 33/53/33 34/19/33
f 36/55/34 100/56/34 93/57/34 33/53/34
f 8/11/35 70/10/35 100/56/35 36/55/35
f 30/32/36 8/11/36 36/55/36 35/18/36
f 91/52/5 30/32/5 35/18/5 98/17/5
f 40/58/37 38/59/37 42/60/37 41/61/37
f 75/31/38 15/30/38 44/62/38 111/63/38
f 15/30/38 16/29/38 43/64/38 44/62/38
f 16/29/38 76/38/38 112/65/38 43/64/38
f 84/66/39 80/67/39 82/68/39 83/69/39
f 65/5/2 67/8/2 45/70/2 47/71/2
f 77/9/3 64/72/3 52/73/3 70/10/3
f 89/74/40 56/75/40 51/76/40 87/77/40
f 98/17/5 95/20/5 96/78/5 97/79/5
f 90/80/41 64/72/41 56/75/41 89/74/41
f 69/22/7 51/76/7 56/75/7 71/23/7
f 67/8/8 73/25/8 57/81/8 45/70/8
f 47/71/42 45/70/42 54/82/42 53/83/42
f 45/70/43 57/81/43 58/84/43 54/82/43
f 57/81/44 59/85/44 60/86/44 58/84/44
f 73/25/12 75/31/12 59/85/12 57/81/12
f 88/87/45 52/73/45 64/72/45 90/80/45
f 71/23/14 56/75/14 64/72/14 77/9/14
f 53/83/46 54/82/46 62/88/46 61/89/46
f 55/90/14 71/23/14 77/9/14 63/91/14
f 58/84/16 60/86/16 76/38/16 74/37/16
f 76/92/38 112/93/38 111/94/38 75/95/38
f 54/82/17 58/84/17 74/37/17 72/39/17
f 49/96/7 69/22/7 71/23/7 55/90/7
f 87/77/18 51/76/18 69/42/18 92/41/18
f 63/91/3 77/9/3 70/10/3 50/97/3
f 48/98/19 46/99/19 68/46/19 66/45/19
f 81/100/47 82/68/47 80/67/47 79/101/47
f 83/69/48 82/68/48 81/100/48 85/102/48
f 85/102/49 81/100/49 79/101/49 86/103/49
f 86/103/50 79/101/50 80/67/50 84/66/50
f 48/98/51 86/103/51 84/66/51 46/99/51
f 62/88/52 83/69/52 85/102/52 61/89/52
f 46/99/26 84/66/26 83/69/26 62/88/26
f 47/71/27 87/77/27 92/41/27 65/5/27
f 48/98/53 88/87/53 90/80/53 61/89/53
f 61/89/54 90/80/54 89/74/54 53/83/54
f 66/45/30 91/52/30 88/87/30 48/98/30
f 53/83/55 89/74/55 87/77/55 47/71/55
f 95/20/32 93/54/32 94/104/32 96/78/32
f 97/79/56 96/78/56 94/104/56 99/105/56
f 99/105/34 94/104/34 93/57/34 100/56/34
f 52/73/35 99/105/35 100/56/35 70/10/35
f 88/87/57 97/79/57 99/105/57 52/73/57
f 91/52/5 98/17/5 97/79/5 88/87/5
f 104/106/37 107/107/37 108/108/37 102/109/37
f 75/31/38 111/63/38 110/110/38 59/85/38
f 59/85/38 110/110/38 109/111/38 60/86/38
f 60/86/38 109/111/38 112/65/38 76/38/38
usemtl Glass
f 10/27/26 18/34/26 78/112/26 72/39/26
f 18/34/26 2/47/26 68/113/26 78/112/26
f 54/82/26 72/39/26 78/112/26 62/88/26
f 62/88/26 78/112/26 68/113/26 46/99/26
usemtl propeller
f 110/110/37 111/63/37 115/114/37 118/115/37
f 111/63/37 44/62/37 114/116/37 115/114/37
f 118/115/58 115/114/58 121/117/58 124/118/58
f 114/116/59 113/119/59 119/120/59 120/121/59
f 43/64/37 112/65/37 116/122/37 113/119/37
f 44/62/37 43/64/37 113/119/37 114/116/37
f 112/65/37 109/111/37 117/123/37 116/122/37
f 109/111/37 110/110/37 118/115/37 117/123/37
f 120/121/38 119/120/38 122/124/38 121/125/38
f 124/118/38 121/125/38 122/124/38 123/126/38
f 115/114/60 114/116/60 120/121/60 121/117/60
f 116/122/61 117/123/61 123/126/61 122/124/61
f 117/123/62 118/115/62 124/118/62 123/126/62
f 113/119/63 116/122/63 122/124/63 119/120/63
l 106 38
l 39 37
l 40 39
l 37 105
l 106 102
l 103 101
l 104 103
l 101 105
